<mxfile host="65bd71144e">
    <diagram name="ページ1" id="KkoOO58DPNnWVFGaFwt4">
        <mxGraphModel dx="730" dy="471" grid="0" gridSize="10" guides="1" tooltips="1" connect="1" arrows="1" fold="1" page="1" pageScale="1" pageWidth="827" pageHeight="1169" math="0" shadow="0">
            <root>
                <mxCell id="0"/>
                <mxCell id="1" parent="0"/>
                <mxCell id="rOMrCfA6mVUxZFJZ6AgU-1" value="VPC" style="points=[[0,0],[0.25,0],[0.5,0],[0.75,0],[1,0],[1,0.25],[1,0.5],[1,0.75],[1,1],[0.75,1],[0.5,1],[0.25,1],[0,1],[0,0.75],[0,0.5],[0,0.25]];outlineConnect=0;gradientColor=none;html=1;whiteSpace=wrap;fontSize=12;fontStyle=0;container=1;pointerEvents=0;collapsible=0;recursiveResize=0;shape=mxgraph.aws4.group;grIcon=mxgraph.aws4.group_vpc2;strokeColor=#8C4FFF;fillColor=none;verticalAlign=top;align=left;spacingLeft=30;fontColor=#AAB7B8;dashed=0;" parent="1" vertex="1">
                    <mxGeometry x="192" y="368" width="560" height="340" as="geometry"/>
                </mxCell>
                <mxCell id="rOMrCfA6mVUxZFJZ6AgU-7" value="Public subnet" style="points=[[0,0],[0.25,0],[0.5,0],[0.75,0],[1,0],[1,0.25],[1,0.5],[1,0.75],[1,1],[0.75,1],[0.5,1],[0.25,1],[0,1],[0,0.75],[0,0.5],[0,0.25]];outlineConnect=0;gradientColor=none;html=1;whiteSpace=wrap;fontSize=12;fontStyle=0;container=1;pointerEvents=0;collapsible=0;recursiveResize=0;shape=mxgraph.aws4.group;grIcon=mxgraph.aws4.group_security_group;grStroke=0;strokeColor=#7AA116;fillColor=#F2F6E8;verticalAlign=top;align=left;spacingLeft=30;fontColor=#248814;dashed=0;" parent="rOMrCfA6mVUxZFJZ6AgU-1" vertex="1">
                    <mxGeometry x="67" y="8" width="262" height="323" as="geometry"/>
                </mxCell>
                <mxCell id="11" value="&amp;nbsp; &amp;nbsp; ELB Target Group" style="fillColor=#EFF0F3;strokeColor=none;dashed=0;verticalAlign=middle;fontStyle=0;fontColor=#232F3D;whiteSpace=wrap;html=1;align=left;" vertex="1" parent="rOMrCfA6mVUxZFJZ6AgU-7">
                    <mxGeometry x="74" y="35" width="174" height="254" as="geometry"/>
                </mxCell>
                <mxCell id="13" value="Security group" style="fillColor=none;strokeColor=#DD3522;verticalAlign=bottom;fontStyle=0;fontColor=#DD3522;whiteSpace=wrap;html=1;" vertex="1" parent="rOMrCfA6mVUxZFJZ6AgU-7">
                    <mxGeometry x="154" y="39" width="75" height="107" as="geometry"/>
                </mxCell>
                <mxCell id="rOMrCfA6mVUxZFJZ6AgU-24" value="EC2" style="whiteSpace=wrap;html=1;fillColor=none;strokeColor=none;" parent="rOMrCfA6mVUxZFJZ6AgU-7" vertex="1">
                    <mxGeometry x="169" y="97" width="50" height="20" as="geometry"/>
                </mxCell>
                <mxCell id="rOMrCfA6mVUxZFJZ6AgU-14" value="" style="sketch=0;points=[[0,0,0],[0.25,0,0],[0.5,0,0],[0.75,0,0],[1,0,0],[0,1,0],[0.25,1,0],[0.5,1,0],[0.75,1,0],[1,1,0],[0,0.25,0],[0,0.5,0],[0,0.75,0],[1,0.25,0],[1,0.5,0],[1,0.75,0]];outlineConnect=0;fontColor=#232F3E;fillColor=#ED7100;strokeColor=#ffffff;dashed=0;verticalLabelPosition=bottom;verticalAlign=top;align=center;html=1;fontSize=12;fontStyle=0;aspect=fixed;shape=mxgraph.aws4.resourceIcon;resIcon=mxgraph.aws4.ec2;" parent="rOMrCfA6mVUxZFJZ6AgU-7" vertex="1">
                    <mxGeometry x="169" y="47" width="50" height="50" as="geometry"/>
                </mxCell>
                <mxCell id="14" value="Security group" style="fillColor=none;strokeColor=#DD3522;verticalAlign=top;fontStyle=0;fontColor=#DD3522;whiteSpace=wrap;html=1;" vertex="1" parent="rOMrCfA6mVUxZFJZ6AgU-7">
                    <mxGeometry x="154" y="170" width="75" height="105" as="geometry"/>
                </mxCell>
                <mxCell id="rOMrCfA6mVUxZFJZ6AgU-10" value="" style="sketch=0;points=[[0,0,0],[0.25,0,0],[0.5,0,0],[0.75,0,0],[1,0,0],[0,1,0],[0.25,1,0],[0.5,1,0],[0.75,1,0],[1,1,0],[0,0.25,0],[0,0.5,0],[0,0.75,0],[1,0.25,0],[1,0.5,0],[1,0.75,0]];outlineConnect=0;fontColor=#232F3E;fillColor=#ED7100;strokeColor=#ffffff;dashed=0;verticalLabelPosition=bottom;verticalAlign=top;align=center;html=1;fontSize=12;fontStyle=0;aspect=fixed;shape=mxgraph.aws4.resourceIcon;resIcon=mxgraph.aws4.ec2;" parent="rOMrCfA6mVUxZFJZ6AgU-7" vertex="1">
                    <mxGeometry x="169" y="205" width="50" height="50" as="geometry"/>
                </mxCell>
                <mxCell id="rOMrCfA6mVUxZFJZ6AgU-15" value="" style="sketch=0;outlineConnect=0;fontColor=#232F3E;gradientColor=none;fillColor=#8C4FFF;strokeColor=none;dashed=0;verticalLabelPosition=bottom;verticalAlign=top;align=center;html=1;fontSize=12;fontStyle=0;aspect=fixed;pointerEvents=1;shape=mxgraph.aws4.application_load_balancer;" parent="rOMrCfA6mVUxZFJZ6AgU-7" vertex="1">
                    <mxGeometry x="19" y="139" width="50" height="50" as="geometry"/>
                </mxCell>
                <mxCell id="rOMrCfA6mVUxZFJZ6AgU-19" value="" style="edgeStyle=orthogonalEdgeStyle;html=1;endArrow=block;elbow=vertical;startArrow=none;endFill=1;strokeColor=#545B64;rounded=0;entryX=0;entryY=0.5;entryDx=0;entryDy=0;entryPerimeter=0;" parent="rOMrCfA6mVUxZFJZ6AgU-7" source="rOMrCfA6mVUxZFJZ6AgU-15" target="rOMrCfA6mVUxZFJZ6AgU-14" edge="1">
                    <mxGeometry width="100" relative="1" as="geometry">
                        <mxPoint x="74" y="161" as="sourcePoint"/>
                        <mxPoint x="168" y="161" as="targetPoint"/>
                        <Array as="points">
                            <mxPoint x="84" y="165"/>
                            <mxPoint x="84" y="72"/>
                        </Array>
                    </mxGeometry>
                </mxCell>
                <mxCell id="rOMrCfA6mVUxZFJZ6AgU-20" value="" style="edgeStyle=orthogonalEdgeStyle;html=1;endArrow=block;elbow=vertical;startArrow=none;endFill=1;strokeColor=#545B64;rounded=0;entryX=0;entryY=0.5;entryDx=0;entryDy=0;entryPerimeter=0;" parent="rOMrCfA6mVUxZFJZ6AgU-7" source="rOMrCfA6mVUxZFJZ6AgU-15" target="rOMrCfA6mVUxZFJZ6AgU-10" edge="1">
                    <mxGeometry width="100" relative="1" as="geometry">
                        <mxPoint x="74" y="372" as="sourcePoint"/>
                        <mxPoint x="168" y="372" as="targetPoint"/>
                        <Array as="points">
                            <mxPoint x="84" y="169"/>
                            <mxPoint x="84" y="230"/>
                        </Array>
                    </mxGeometry>
                </mxCell>
                <mxCell id="rOMrCfA6mVUxZFJZ6AgU-26" value="ELB" style="whiteSpace=wrap;html=1;fillColor=none;strokeColor=none;" parent="rOMrCfA6mVUxZFJZ6AgU-7" vertex="1">
                    <mxGeometry x="19" y="189" width="50" height="20" as="geometry"/>
                </mxCell>
                <mxCell id="rOMrCfA6mVUxZFJZ6AgU-23" value="EC2" style="whiteSpace=wrap;html=1;fillColor=none;strokeColor=none;" parent="rOMrCfA6mVUxZFJZ6AgU-7" vertex="1">
                    <mxGeometry x="169" y="252" width="50" height="20" as="geometry"/>
                </mxCell>
                <mxCell id="12" value="Security group" style="fillColor=none;strokeColor=#DD3522;verticalAlign=top;fontStyle=0;fontColor=#DD3522;whiteSpace=wrap;html=1;" vertex="1" parent="rOMrCfA6mVUxZFJZ6AgU-7">
                    <mxGeometry x="7" y="103" width="70" height="113" as="geometry"/>
                </mxCell>
                <mxCell id="rOMrCfA6mVUxZFJZ6AgU-8" value="Private subnet" style="points=[[0,0],[0.25,0],[0.5,0],[0.75,0],[1,0],[1,0.25],[1,0.5],[1,0.75],[1,1],[0.75,1],[0.5,1],[0.25,1],[0,1],[0,0.75],[0,0.5],[0,0.25]];outlineConnect=0;gradientColor=none;html=1;whiteSpace=wrap;fontSize=12;fontStyle=0;container=1;pointerEvents=0;collapsible=0;recursiveResize=0;shape=mxgraph.aws4.group;grIcon=mxgraph.aws4.group_security_group;grStroke=0;strokeColor=#00A4A6;fillColor=#E6F6F7;verticalAlign=top;align=left;spacingLeft=30;fontColor=#147EBA;dashed=0;" parent="rOMrCfA6mVUxZFJZ6AgU-1" vertex="1">
                    <mxGeometry x="362" y="9" width="184" height="322" as="geometry"/>
                </mxCell>
                <mxCell id="16" value="Security group" style="fillColor=none;strokeColor=#DD3522;verticalAlign=top;fontStyle=0;fontColor=#DD3522;whiteSpace=wrap;html=1;" vertex="1" parent="rOMrCfA6mVUxZFJZ6AgU-8">
                    <mxGeometry x="44" y="195" width="97" height="110" as="geometry"/>
                </mxCell>
                <mxCell id="2" value="" style="sketch=0;points=[[0,0,0],[0.25,0,0],[0.5,0,0],[0.75,0,0],[1,0,0],[0,1,0],[0.25,1,0],[0.5,1,0],[0.75,1,0],[1,1,0],[0,0.25,0],[0,0.5,0],[0,0.75,0],[1,0.25,0],[1,0.5,0],[1,0.75,0]];outlineConnect=0;fontColor=#232F3E;fillColor=#C925D1;strokeColor=#ffffff;dashed=0;verticalLabelPosition=bottom;verticalAlign=top;align=center;html=1;fontSize=12;fontStyle=0;aspect=fixed;shape=mxgraph.aws4.resourceIcon;resIcon=mxgraph.aws4.elasticache;" vertex="1" parent="rOMrCfA6mVUxZFJZ6AgU-8">
                    <mxGeometry x="67" y="46" width="50" height="50" as="geometry"/>
                </mxCell>
                <mxCell id="rOMrCfA6mVUxZFJZ6AgU-27" value="Valkey&lt;div&gt;(Session Store)&lt;/div&gt;" style="whiteSpace=wrap;html=1;fillColor=none;strokeColor=none;" parent="rOMrCfA6mVUxZFJZ6AgU-8" vertex="1">
                    <mxGeometry x="47" y="96" width="94" height="32" as="geometry"/>
                </mxCell>
                <mxCell id="rOMrCfA6mVUxZFJZ6AgU-16" value="" style="sketch=0;points=[[0,0,0],[0.25,0,0],[0.5,0,0],[0.75,0,0],[1,0,0],[0,1,0],[0.25,1,0],[0.5,1,0],[0.75,1,0],[1,1,0],[0,0.25,0],[0,0.5,0],[0,0.75,0],[1,0.25,0],[1,0.5,0],[1,0.75,0]];outlineConnect=0;fontColor=#232F3E;fillColor=#C925D1;strokeColor=#ffffff;dashed=0;verticalLabelPosition=bottom;verticalAlign=top;align=center;html=1;fontSize=12;fontStyle=0;aspect=fixed;shape=mxgraph.aws4.resourceIcon;resIcon=mxgraph.aws4.rds;" parent="rOMrCfA6mVUxZFJZ6AgU-8" vertex="1">
                    <mxGeometry x="71" y="230" width="46" height="46" as="geometry"/>
                </mxCell>
                <mxCell id="7" value="RDS" style="whiteSpace=wrap;html=1;fillColor=none;strokeColor=none;" vertex="1" parent="rOMrCfA6mVUxZFJZ6AgU-8">
                    <mxGeometry x="71" y="274" width="50" height="20" as="geometry"/>
                </mxCell>
                <mxCell id="15" value="Security group" style="fillColor=none;strokeColor=#DD3522;verticalAlign=top;fontStyle=0;fontColor=#DD3522;whiteSpace=wrap;html=1;" vertex="1" parent="rOMrCfA6mVUxZFJZ6AgU-8">
                    <mxGeometry x="43" y="23" width="97" height="110" as="geometry"/>
                </mxCell>
                <mxCell id="rOMrCfA6mVUxZFJZ6AgU-21" value="" style="edgeStyle=orthogonalEdgeStyle;html=1;endArrow=block;elbow=vertical;startArrow=none;endFill=1;strokeColor=#545B64;rounded=0;entryX=0;entryY=0.75;entryDx=0;entryDy=0;entryPerimeter=0;exitX=1;exitY=0.25;exitDx=0;exitDy=0;exitPerimeter=0;" parent="rOMrCfA6mVUxZFJZ6AgU-1" source="rOMrCfA6mVUxZFJZ6AgU-10" target="2" edge="1">
                    <mxGeometry width="100" relative="1" as="geometry">
                        <mxPoint x="342" y="225" as="sourcePoint"/>
                        <mxPoint x="350" y="115" as="targetPoint"/>
                        <Array as="points">
                            <mxPoint x="352" y="225"/>
                            <mxPoint x="352" y="93"/>
                        </Array>
                    </mxGeometry>
                </mxCell>
                <mxCell id="rOMrCfA6mVUxZFJZ6AgU-22" value="" style="edgeStyle=orthogonalEdgeStyle;html=1;endArrow=block;elbow=vertical;startArrow=none;endFill=1;strokeColor=#545B64;rounded=0;exitX=1;exitY=0.25;exitDx=0;exitDy=0;exitPerimeter=0;entryX=0;entryY=0.25;entryDx=0;entryDy=0;entryPerimeter=0;" parent="rOMrCfA6mVUxZFJZ6AgU-1" source="rOMrCfA6mVUxZFJZ6AgU-14" target="2" edge="1">
                    <mxGeometry width="100" relative="1" as="geometry">
                        <mxPoint x="150" y="195" as="sourcePoint"/>
                        <mxPoint x="350" y="100" as="targetPoint"/>
                        <Array as="points">
                            <mxPoint x="357" y="68"/>
                            <mxPoint x="357" y="68"/>
                        </Array>
                    </mxGeometry>
                </mxCell>
                <mxCell id="rOMrCfA6mVUxZFJZ6AgU-9" value="" style="sketch=0;outlineConnect=0;fontColor=#232F3E;gradientColor=none;fillColor=#8C4FFF;strokeColor=none;dashed=0;verticalLabelPosition=bottom;verticalAlign=top;align=center;html=1;fontSize=12;fontStyle=0;aspect=fixed;pointerEvents=1;shape=mxgraph.aws4.internet_gateway;" parent="rOMrCfA6mVUxZFJZ6AgU-1" vertex="1">
                    <mxGeometry x="-24" y="149" width="48" height="48" as="geometry"/>
                </mxCell>
                <mxCell id="rOMrCfA6mVUxZFJZ6AgU-17" value="" style="edgeStyle=orthogonalEdgeStyle;html=1;endArrow=block;elbow=vertical;startArrow=none;endFill=1;strokeColor=#545B64;rounded=0;" parent="rOMrCfA6mVUxZFJZ6AgU-1" source="rOMrCfA6mVUxZFJZ6AgU-9" target="rOMrCfA6mVUxZFJZ6AgU-15" edge="1">
                    <mxGeometry width="100" relative="1" as="geometry">
                        <mxPoint x="190" y="200" as="sourcePoint"/>
                        <mxPoint x="290" y="200" as="targetPoint"/>
                        <Array as="points">
                            <mxPoint x="74" y="174"/>
                            <mxPoint x="74" y="174"/>
                        </Array>
                    </mxGeometry>
                </mxCell>
                <mxCell id="9" value="" style="sketch=0;outlineConnect=0;fontColor=#232F3E;gradientColor=none;fillColor=#8C4FFF;strokeColor=none;dashed=0;verticalLabelPosition=bottom;verticalAlign=top;align=center;html=1;fontSize=12;fontStyle=0;aspect=fixed;pointerEvents=1;shape=mxgraph.aws4.route_table;" vertex="1" parent="rOMrCfA6mVUxZFJZ6AgU-1">
                    <mxGeometry x="16.62" y="37" width="34.89" height="34" as="geometry"/>
                </mxCell>
                <mxCell id="10" value="Route&lt;div&gt;Table&lt;/div&gt;" style="whiteSpace=wrap;html=1;fillColor=none;strokeColor=none;" vertex="1" parent="rOMrCfA6mVUxZFJZ6AgU-1">
                    <mxGeometry x="9.07" y="77" width="50" height="20" as="geometry"/>
                </mxCell>
                <mxCell id="rOMrCfA6mVUxZFJZ6AgU-25" value="Internet Gateway" style="whiteSpace=wrap;html=1;fillColor=none;strokeColor=none;" parent="rOMrCfA6mVUxZFJZ6AgU-1" vertex="1">
                    <mxGeometry x="-26" y="197" width="50" height="29" as="geometry"/>
                </mxCell>
                <mxCell id="18" value="" style="edgeStyle=orthogonalEdgeStyle;html=1;endArrow=block;elbow=vertical;startArrow=none;endFill=1;strokeColor=#545B64;rounded=0;entryX=0;entryY=0.75;entryDx=0;entryDy=0;entryPerimeter=0;exitX=1;exitY=0.75;exitDx=0;exitDy=0;exitPerimeter=0;" edge="1" parent="rOMrCfA6mVUxZFJZ6AgU-1" source="rOMrCfA6mVUxZFJZ6AgU-10" target="rOMrCfA6mVUxZFJZ6AgU-16">
                    <mxGeometry width="100" relative="1" as="geometry">
                        <mxPoint x="296" y="236" as="sourcePoint"/>
                        <mxPoint x="439" y="103" as="targetPoint"/>
                        <Array as="points">
                            <mxPoint x="317" y="251"/>
                            <mxPoint x="317" y="273"/>
                        </Array>
                    </mxGeometry>
                </mxCell>
                <mxCell id="19" value="" style="edgeStyle=orthogonalEdgeStyle;html=1;endArrow=block;elbow=vertical;startArrow=none;endFill=1;strokeColor=#545B64;rounded=0;entryX=0;entryY=0.25;entryDx=0;entryDy=0;entryPerimeter=0;exitX=1;exitY=0.75;exitDx=0;exitDy=0;exitPerimeter=0;" edge="1" parent="rOMrCfA6mVUxZFJZ6AgU-1" source="rOMrCfA6mVUxZFJZ6AgU-14" target="rOMrCfA6mVUxZFJZ6AgU-16">
                    <mxGeometry width="100" relative="1" as="geometry">
                        <mxPoint x="296" y="78" as="sourcePoint"/>
                        <mxPoint x="439" y="78" as="targetPoint"/>
                        <Array as="points">
                            <mxPoint x="337" y="93"/>
                            <mxPoint x="337" y="251"/>
                        </Array>
                    </mxGeometry>
                </mxCell>
                <mxCell id="4" style="edgeStyle=none;html=1;" edge="1" parent="1" source="3" target="rOMrCfA6mVUxZFJZ6AgU-9">
                    <mxGeometry relative="1" as="geometry"/>
                </mxCell>
                <mxCell id="3" value="" style="shape=actor;whiteSpace=wrap;html=1;" vertex="1" parent="1">
                    <mxGeometry x="69" y="514.5" width="40" height="53" as="geometry"/>
                </mxCell>
            </root>
        </mxGraphModel>
    </diagram>
</mxfile>